<svg width="20" height="20" viewBox="0 0 20 20" fill="none" xmlns="http://www.w3.org/2000/svg">
<path d="M12.4542 1.04175C11.315 1.04175 10.3958 1.04175 9.67333 1.13925C8.92333 1.23925 8.29166 1.45591 7.79 1.95675C7.35333 2.39425 7.13166 2.93175 7.01583 3.56341C6.90333 4.17758 6.88166 4.92841 6.87666 5.83008C6.87578 5.99584 6.94078 6.15516 7.05737 6.273C7.17395 6.39083 7.33257 6.45753 7.49833 6.45841C7.66409 6.4593 7.82341 6.3943 7.94125 6.27771C8.05908 6.16113 8.12578 6.00251 8.12666 5.83675C8.13166 4.92591 8.155 4.28008 8.245 3.78925C8.3325 3.31758 8.47166 3.04341 8.67416 2.84091C8.905 2.61008 9.22916 2.46008 9.84083 2.37758C10.47 2.29341 11.3042 2.29175 12.5 2.29175H13.3333C14.53 2.29175 15.3642 2.29341 15.9933 2.37758C16.605 2.46008 16.9283 2.61091 17.16 2.84091C17.39 3.07175 17.54 3.39508 17.6225 4.00758C17.7075 4.63591 17.7083 5.47091 17.7083 6.66675V13.3334C17.7083 14.5292 17.7075 15.3634 17.6225 15.9934C17.54 16.6051 17.39 16.9284 17.1592 17.1592C16.9283 17.3901 16.605 17.5401 15.9933 17.6226C15.3642 17.7067 14.53 17.7084 13.3333 17.7084H12.5C11.3042 17.7084 10.47 17.7067 9.84 17.6226C9.22916 17.5401 8.905 17.3892 8.67416 17.1592C8.47166 16.9559 8.3325 16.6826 8.245 16.2109C8.155 15.7201 8.13166 15.0742 8.12666 14.1634C8.12623 14.0813 8.10963 14.0001 8.07781 13.9245C8.046 13.8488 7.9996 13.7802 7.94125 13.7224C7.8829 13.6647 7.81376 13.6191 7.73776 13.588C7.66177 13.557 7.58041 13.5413 7.49833 13.5417C7.41626 13.5422 7.33507 13.5588 7.25941 13.5906C7.18375 13.6224 7.11509 13.6688 7.05737 13.7272C6.99964 13.7855 6.95397 13.8547 6.92296 13.9306C6.89196 14.0066 6.87623 14.088 6.87666 14.1701C6.88166 15.0717 6.90333 15.8226 7.01583 16.4367C7.1325 17.0684 7.35333 17.6059 7.79083 18.0434C8.29166 18.5451 8.92416 18.7601 9.67416 18.8617C10.3958 18.9584 11.315 18.9584 12.4542 18.9584H13.3792C14.5192 18.9584 15.4375 18.9584 16.16 18.8617C16.91 18.7601 17.5417 18.5451 18.0433 18.0434C18.545 17.5417 18.76 16.9101 18.8617 16.1601C18.9583 15.4376 18.9583 14.5184 18.9583 13.3792V6.62091C18.9583 5.48175 18.9583 4.56258 18.8617 3.84008C18.7608 3.09008 18.545 2.45841 18.0433 1.95675C17.5417 1.45508 16.91 1.24008 16.16 1.13925C15.4375 1.04175 14.5183 1.04175 13.3792 1.04175H12.4542Z" fill="black"/>
<path d="M12.5 9.37506C12.6658 9.37506 12.8247 9.44091 12.9419 9.55812C13.0592 9.67533 13.125 9.8343 13.125 10.0001C13.125 10.1658 13.0592 10.3248 12.9419 10.442C12.8247 10.5592 12.6658 10.6251 12.5 10.6251H3.35583L4.99 12.0251C5.11598 12.1329 5.19395 12.2864 5.20677 12.4517C5.21958 12.6171 5.16619 12.7807 5.05833 12.9067C4.95048 13.0327 4.797 13.1107 4.63165 13.1235C4.46631 13.1363 4.30265 13.0829 4.17667 12.9751L1.26 10.4751C1.19139 10.4164 1.1363 10.3435 1.09853 10.2615C1.06076 10.1795 1.0412 10.0903 1.0412 10.0001C1.0412 9.90978 1.06076 9.82057 1.09853 9.73857C1.1363 9.65657 1.19139 9.58373 1.26 9.52506L4.17667 7.02506C4.23905 6.97165 4.31133 6.93106 4.3894 6.90559C4.46746 6.88012 4.54978 6.87028 4.63165 6.87663C4.71352 6.88297 4.79334 6.90538 4.86655 6.94257C4.93976 6.97977 5.00493 7.03101 5.05833 7.09339C5.11174 7.15577 5.15233 7.22806 5.1778 7.30612C5.20327 7.38419 5.21311 7.46651 5.20677 7.54838C5.20042 7.63025 5.17801 7.71007 5.14082 7.78328C5.10363 7.85649 5.05238 7.92165 4.99 7.97506L3.35667 9.37506H12.5Z" fill="black"/>
</svg>
